<svg xmlns="http://www.w3.org/2000/svg" aria-hidden="true" style="position:absolute;width:0;height:0;overflow:hidden"><defs><symbol id="icon-close" viewBox="0 0 32 32"><path stroke-linecap="round" stroke-width="1.561" d="M26.667 26.667 5.334 5.334m21.333-.001L5.334 26.666"/></symbol><symbol id="icon-cross" viewBox="0 0 32 32"><path stroke-linecap="round" stroke-width="2.667" d="M26.667 26.667 5.334 5.334m21.333-.001L5.334 26.666"/></symbol><symbol id="icon-download" viewBox="0 0 32 32"><path fill="#fff" d="m16 23.111-8.889-8.889L9.6 11.644l4.622 4.622V1.777h3.556v14.489l4.622-4.622 2.489 2.578zM5.333 30.222q-1.467 0-2.51-1.044c-1.043-1.044-1.044-1.533-1.045-2.512v-5.333h3.556v5.333h21.333v-5.333h3.556v5.333q0 1.467-1.044 2.512c-1.044 1.045-1.533 1.045-2.512 1.044z" style="fill:var(--color1, #fff)"/></symbol><symbol id="icon-menu" viewBox="0 0 32 32"><path stroke-linecap="round" stroke-linejoin="round" stroke-width="2.133" d="M5.333 6.667h21.333M5.333 16h21.333M5.333 25.333h21.333"/></symbol></defs></svg>